<svg width="24" height="25" viewBox="0 0 24 25" fill="none" xmlns="http://www.w3.org/2000/svg">
<path d="M13.0305 1.91382L2.04 0.244322C1.53 0.164822 1.0095 0.304322 0.6195 0.634322C0.2295 0.974822 0 1.46382 0 1.97382V23.0443C0 23.5948 0.45 24.0448 1.0005 24.0448H4.251V18.7948C4.251 17.8243 5.031 17.0443 6.0015 17.0443H8.502C9.4725 17.0443 10.2525 17.8243 10.2525 18.7948V24.0448H14.502V3.64482C14.5005 2.78382 13.8795 2.05482 13.0305 1.91382ZM5.5005 14.7943H4.0005C3.5865 14.7943 3.2505 14.4583 3.2505 14.0443C3.2505 13.6303 3.5865 13.2943 4.0005 13.2943H5.5005C5.9145 13.2943 6.2505 13.6303 6.2505 14.0443C6.2505 14.4583 5.9145 14.7943 5.5005 14.7943ZM5.5005 11.7943H4.0005C3.5865 11.7943 3.2505 11.4583 3.2505 11.0443C3.2505 10.6303 3.5865 10.2943 4.0005 10.2943H5.5005C5.9145 10.2943 6.2505 10.6303 6.2505 11.0443C6.2505 11.4583 5.9145 11.7943 5.5005 11.7943ZM5.5005 8.79432H4.0005C3.5865 8.79432 3.2505 8.45832 3.2505 8.04432C3.2505 7.63032 3.5865 7.29432 4.0005 7.29432H5.5005C5.9145 7.29432 6.2505 7.63032 6.2505 8.04432C6.2505 8.45832 5.9145 8.79432 5.5005 8.79432ZM5.5005 5.79432H4.0005C3.5865 5.79432 3.2505 5.45832 3.2505 5.04432C3.2505 4.63032 3.5865 4.29432 4.0005 4.29432H5.5005C5.9145 4.29432 6.2505 4.63032 6.2505 5.04432C6.2505 5.45832 5.9145 5.79432 5.5005 5.79432ZM10.5 14.7943H9C8.586 14.7943 8.25 14.4583 8.25 14.0443C8.25 13.6303 8.586 13.2943 9 13.2943H10.5C10.914 13.2943 11.25 13.6303 11.25 14.0443C11.25 14.4583 10.914 14.7943 10.5 14.7943ZM10.5 11.7943H9C8.586 11.7943 8.25 11.4583 8.25 11.0443C8.25 10.6303 8.586 10.2943 9 10.2943H10.5C10.914 10.2943 11.25 10.6303 11.25 11.0443C11.25 11.4583 10.914 11.7943 10.5 11.7943ZM10.5 8.79432H9C8.586 8.79432 8.25 8.45832 8.25 8.04432C8.25 7.63032 8.586 7.29432 9 7.29432H10.5C10.914 7.29432 11.25 7.63032 11.25 8.04432C11.25 8.45832 10.914 8.79432 10.5 8.79432ZM10.5 5.79432H9C8.586 5.79432 8.25 5.45832 8.25 5.04432C8.25 4.63032 8.586 4.29432 9 4.29432H10.5C10.914 4.29432 11.25 4.63032 11.25 5.04432C11.25 5.45832 10.914 5.79432 10.5 5.79432Z" fill="#232536"/>
<path d="M22.6199 10.8869L15.4994 9.3959V24.0449H22.2494C23.2139 24.0449 23.9999 23.2604 23.9999 22.2944V12.5969C23.9999 11.7704 23.4359 11.0669 22.6199 10.8869ZM20.2499 21.0449H18.7499C18.3359 21.0449 17.9999 20.7089 17.9999 20.2949C17.9999 19.8809 18.3359 19.5449 18.7499 19.5449H20.2499C20.6639 19.5449 20.9999 19.8809 20.9999 20.2949C20.9999 20.7089 20.6639 21.0449 20.2499 21.0449ZM20.2499 18.0449H18.7499C18.3359 18.0449 17.9999 17.7089 17.9999 17.2949C17.9999 16.8809 18.3359 16.5449 18.7499 16.5449H20.2499C20.6639 16.5449 20.9999 16.8809 20.9999 17.2949C20.9999 17.7089 20.6639 18.0449 20.2499 18.0449ZM20.2499 15.0449H18.7499C18.3359 15.0449 17.9999 14.7089 17.9999 14.2949C17.9999 13.8809 18.3359 13.5449 18.7499 13.5449H20.2499C20.6639 13.5449 20.9999 13.8809 20.9999 14.2949C20.9999 14.7089 20.6639 15.0449 20.2499 15.0449Z" fill="#FFD050"/>
</svg>
