<svg width="23" height="24" viewBox="0 0 23 24" fill="none" xmlns="http://www.w3.org/2000/svg">
<g clip-path="url(#clip0_14_1369)">
<path d="M5.11521 15.4255H2.53134C1.59954 15.4255 0.841431 16.218 0.841431 17.1922V22.9152C0.841431 23.5134 1.30702 24.0002 1.87923 24.0002H5.76723C6.33948 24.0002 6.80507 23.5134 6.80507 22.9152V17.1922C6.80507 16.218 6.04701 15.4255 5.11521 15.4255Z" fill="#232536"/>
<path d="M12.6995 11.9491H10.1157C9.18386 11.9491 8.42575 12.7417 8.42575 13.7158V22.9147C8.42575 23.513 8.89134 23.9997 9.46359 23.9997H13.3516C13.9239 23.9997 14.3894 23.513 14.3894 22.9147V13.7158C14.3894 12.7416 13.6313 11.9491 12.6995 11.9491Z" fill="#232536"/>
<path d="M20.4253 7.98883H17.8414C16.9096 7.98883 16.1515 8.78139 16.1515 9.75551V22.9149C16.1515 23.5131 16.6171 23.9998 17.1893 23.9998H21.0773C21.6496 23.9998 22.1151 23.5131 22.1151 22.9149V9.75551C22.1152 8.78139 21.3571 7.98883 20.4253 7.98883Z" fill="#232536"/>
<path d="M18.3679 0.668189C18.0518 0.201126 17.5378 -0.045859 16.9927 0.00645363L12.1126 0.478486C11.5676 0.53122 11.1057 0.87294 10.8769 1.39264C10.6481 1.91235 10.7002 2.50152 11.0163 2.96858L11.2887 3.37105L5.23158 7.7468L5.22539 7.75134C4.79558 8.0693 4.50997 8.54325 4.42115 9.08583C4.33232 9.62841 4.45087 10.1746 4.755 10.624C5.05913 11.0733 5.51248 11.3719 6.03147 11.4648C6.14392 11.4849 6.25651 11.4949 6.36833 11.4949C6.77115 11.4949 7.16351 11.3657 7.49939 11.1184L13.5662 6.73575L13.8475 7.15111C14.1355 7.57669 14.5878 7.81983 15.0781 7.81983C15.1259 7.81983 15.1741 7.81748 15.2226 7.81284C15.7676 7.76011 16.2295 7.41834 16.4583 6.89859L18.5074 2.24413C18.7362 1.72433 18.6841 1.13521 18.3679 0.668189Z" fill="#FFD050"/>
</g>
<defs>
<clipPath id="clip0_14_1369">
<rect width="22.9565" height="24" fill="white"/>
</clipPath>
</defs>
</svg>
