<svg width="23" height="23" viewBox="0 0 23 23" fill="none" xmlns="http://www.w3.org/2000/svg">
<g clip-path="url(#clip0_14_1395)">
<path d="M14.326 8.67403C15.1141 9.46218 16.3966 9.46223 17.1848 8.67403C17.5666 8.29219 17.7769 7.78458 17.7769 7.24462C17.7769 6.70466 17.5666 6.19704 17.1848 5.81525C16.7907 5.42115 16.273 5.22412 15.7554 5.22412C15.2377 5.22412 14.7201 5.42115 14.326 5.81525C13.9442 6.19704 13.7339 6.70466 13.7339 7.24462C13.7339 7.78458 13.9442 8.29224 14.326 8.67403Z" fill="#232536"/>
<path d="M5.85054 6.21094L3.85792 6.36488C3.30345 6.40774 2.80963 6.69834 2.50299 7.16215L0.204943 10.6378C-0.0276155 10.9896 -0.0645859 11.4297 0.105981 11.8153C0.276593 12.201 0.627205 12.4697 1.04385 12.5342L2.86834 12.8168C3.29514 10.5518 4.31683 8.29247 5.85054 6.21094Z" fill="#FFD050"/>
<path d="M10.1826 20.1306L10.4652 21.9551C10.5298 22.3718 10.7985 22.7224 11.1841 22.893C11.3445 22.9639 11.5143 22.999 11.6832 22.999C11.9205 22.999 12.1562 22.9298 12.3616 22.794L15.8374 20.496C16.3012 20.1893 16.5918 19.6954 16.6346 19.1411L16.7885 17.1484C14.7069 18.6822 12.4476 19.7039 10.1826 20.1306Z" fill="#FFD050"/>
<path d="M9.49658 18.8665C9.55992 18.8665 9.62362 18.8613 9.68718 18.8507C10.6361 18.6921 11.5507 18.4248 12.4232 18.0749L4.92442 10.5762C4.57457 11.4486 4.30729 12.3632 4.14863 13.3122C4.0861 13.6862 4.21156 14.0673 4.4797 14.3355L8.66387 18.5196C8.8865 18.7422 9.18698 18.8665 9.49658 18.8665Z" fill="#FFD050"/>
<path d="M21.1661 10.1973C23.0011 6.64969 23.069 2.90072 22.9731 1.14249C22.9403 0.540047 22.46 0.0597456 21.8575 0.026908C21.5712 0.0112753 21.2319 0 20.8495 0C18.8835 0 15.7726 0.297785 12.8027 1.83397C10.4424 3.0548 7.34745 5.74295 5.52148 9.27567C5.54305 9.29251 5.56411 9.31039 5.58397 9.33025L13.6698 17.4161C13.6897 17.436 13.7075 17.457 13.7244 17.4786C17.2571 15.6525 19.9453 12.5576 21.1661 10.1973ZM13.3731 4.86231C14.6866 3.54876 16.8241 3.54862 18.1377 4.86231C18.7741 5.49862 19.1245 6.34472 19.1245 7.24463C19.1245 8.14454 18.7741 8.99064 18.1377 9.62695C17.481 10.2837 16.618 10.6121 15.7554 10.6122C14.8925 10.6122 14.03 10.2838 13.3731 9.62695C12.7367 8.99064 12.3863 8.14454 12.3863 7.24463C12.3863 6.34472 12.7367 5.49862 13.3731 4.86231Z" fill="#232536"/>
<path d="M0.687523 18.9539C0.859978 18.9539 1.03243 18.8881 1.16396 18.7565L3.36392 16.5565C3.62708 16.2934 3.62708 15.8668 3.36392 15.6036C3.10082 15.3405 2.67415 15.3405 2.411 15.6036L0.211036 17.8036C-0.0521162 18.0667 -0.0521162 18.4934 0.211036 18.7565C0.342612 18.8881 0.515068 18.9539 0.687523 18.9539Z" fill="#FFD050"/>
<path d="M5.37991 17.6192C5.1168 17.3561 4.69014 17.3561 4.42698 17.6192L0.197364 21.8489C-0.0657881 22.112 -0.0657881 22.5386 0.197364 22.8018C0.32894 22.9334 0.501396 22.9991 0.673851 22.9991C0.846306 22.9991 1.01876 22.9334 1.15029 22.8017L5.37987 18.5722C5.64306 18.309 5.64306 17.8824 5.37991 17.6192Z" fill="#FFD050"/>
<path d="M6.44318 19.6368L4.24326 21.8368C3.98011 22.0999 3.98011 22.5266 4.24326 22.7897C4.37484 22.9213 4.54729 22.9871 4.7197 22.9871C4.89211 22.9871 5.06461 22.9213 5.19615 22.7897L7.3961 20.5897C7.65926 20.3266 7.65926 19.9 7.3961 19.6368C7.133 19.3737 6.70633 19.3737 6.44318 19.6368Z" fill="#FFD050"/>
</g>
<defs>
<clipPath id="clip0_14_1395">
<rect width="23" height="23" fill="white"/>
</clipPath>
</defs>
</svg>
